<?xml version="1.0" encoding="UTF-8" standalone="no"?>
<!DOCTYPE svg PUBLIC "-//W3C//DTD SVG 1.0//EN" "http://www.w3.org/TR/2001/PR-SVG-20010719/DTD/svg10.dtd">
<svg width="57cm" height="40cm" viewBox="-198 145 1129 784" xmlns="http://www.w3.org/2000/svg" xmlns:xlink="http://www.w3.org/1999/xlink">
  <g>
    <g>
      <path style="fill: #c9c9b6" d="M 359.677 822.067 L 396.968,787.269 L 675.409,787.269 L 638.177,822.067 L 359.677,822.067z"/>
      <path style="fill: none; fill-opacity:0; stroke-width: 0.02; stroke: #494936" d="M 359.677 822.067 L 396.968,787.269 L 675.409,787.269 L 638.177,822.067 L 359.677,822.067"/>
      <path style="fill: #b7b79d" d="M 359.677 822.067 L 638.177,822.067 L 638.177,874.382 L 359.677,874.382 L 359.677,822.067z"/>
      <path style="fill: none; fill-opacity:0; stroke-width: 0.02; stroke: #494936" d="M 359.677 822.067 L 638.177,822.067 L 638.177,874.382 L 359.677,874.382 L 359.677,822.067"/>
      <path style="fill: #7a7a5a" d="M 638.177 874.382 L 675.409,837.268 L 675.409,787.269 L 638.177,822.067 L 638.177,874.382z"/>
      <path style="fill: none; fill-opacity:0; stroke-width: 0.02; stroke: #494936" d="M 638.177 874.382 L 675.409,837.268 L 675.409,787.269 L 638.177,822.067 L 638.177,874.382"/>
      <path style="fill: #000000" d="M 368.524 815.535 L 396.968,787.269 L 668.818,787.269 L 640.315,815.535 L 368.524,815.535z"/>
      <path style="fill: none; fill-opacity:0; stroke-width: 0.02; stroke: #000000" d="M 368.524 815.535 L 396.968,787.269 L 668.818,787.269 L 640.315,815.535 L 368.524,815.535"/>
      <path style="fill: #c9c9b6" d="M 359.677 590.894 L 390.436,562.628 L 668.818,562.628 L 638.177,590.894 L 359.677,590.894z"/>
      <path style="fill: none; fill-opacity:0; stroke-width: 0.02; stroke: #494936" d="M 359.677 590.894 L 390.436,562.628 L 668.818,562.628 L 638.177,590.894 L 359.677,590.894"/>
      <path style="fill: #b7b79d" d="M 359.677 590.894 L 640.255,590.894 L 640.255,811.2 L 359.677,811.2 L 359.677,590.894z"/>
      <path style="fill: none; fill-opacity:0; stroke-width: 0.02; stroke: #494936" d="M 359.677 590.894 L 640.196,590.894 L 640.196,811.081 L 359.677,811.081 L 359.677,590.894"/>
      <path style="fill: #ffffff" d="M 383.964 619.278 L 616.265,619.278 L 616.265,789.407 L 383.964,789.407 L 383.964,619.278z"/>
      <path style="fill: none; fill-opacity:0; stroke-width: 0.02; stroke: #494936" d="M 383.964 619.278 L 616.206,619.278 L 616.206,789.288 L 383.964,789.288 L 383.964,619.278"/>
      <path style="fill: #7a7a5a" d="M 638.177 808.884 L 668.818,778.421 L 668.818,562.628 L 638.177,590.894 L 638.177,808.884z"/>
      <path style="fill: none; fill-opacity:0; stroke-width: 0.02; stroke: #494936" d="M 638.177 808.884 L 668.818,778.421 L 668.818,562.628 L 638.177,590.894 L 638.177,808.884"/>
      <path style="fill: #c9c9b6" d="M 304.986 917.968 L 348.81,863.515 L 651.181,863.515 L 607.417,917.968 L 304.986,917.968z"/>
      <path style="fill: none; fill-opacity:0; stroke-width: 0.02; stroke: #494936" d="M 305.283 917.612 L 348.81,863.515 L 651.181,863.515 L 607.417,917.968 L 305.283,917.968"/>
      <path style="fill: #7a7a5a" d="M 607.417 928.954 L 651.181,883.111 L 651.181,863.515 L 607.417,917.968 L 607.417,928.954z"/>
      <path style="fill: none; fill-opacity:0; stroke-width: 0.02; stroke: #494936" d="M 607.595 928.657 L 651.181,883.111 L 651.181,863.515 L 607.417,917.968 L 607.417,928.657"/>
      <path style="fill: #b7b79d" d="M 304.986 917.968 L 607.417,917.968 L 607.417,928.954 L 304.986,928.954 L 304.986,917.968z"/>
      <path style="fill: none; fill-opacity:0; stroke-width: 0.02; stroke: #494936" d="M 305.283 917.968 L 607.417,917.968 L 607.417,928.657"/>
    </g>
    <image x="439.738" y="629.192" width="115.213" height="150.769" xlink:href="file:///home/mac/SharedData/PycharmProjs/ShowControl/Documentation/DramaMasks.png"/>
  </g>
  <image x="-196.658" y="163.036" width="158" height="109.051" xlink:href="file:///home/mac/SharedData/PycharmProjs/ShowControl/Documentation/large_open_book.png"/>
  <image x="443.036" y="165.831" width="186.859" height="221.441" xlink:href="file:///home/mac/SharedData/PycharmProjs/ShowControl/Documentation/ebook.png"/>
  <g>
    <path style="fill: none; fill-opacity:0; stroke-width: 2; stroke: #000000" d="M -117.658 272.086 C -120.666,356.252 -301.874,614.112 -61.0504,614.621"/>
    <polygon style="fill: #000000" points="-53.5505,614.637 -63.561,619.616 -61.0504,614.621 -63.5399,609.616 "/>
    <polygon style="fill: none; fill-opacity:0; stroke-width: 2; stroke: #000000" points="-53.5505,614.637 -63.561,619.616 -61.0504,614.621 -63.5399,609.616 "/>
  </g>
  <text font-size="16.9333" style="fill: #000000;text-anchor:start;font-family:sans-serif;font-style:normal;font-weight:normal" x="-196.658" y="163.036">
    <tspan x="-196.658" y="163.036">Paper script</tspan>
  </text>
  <g>
    <rect style="fill: #d8e5e5" x="629.894" y="145.431" width="301.1" height="135.667"/>
    <text font-size="22.0133" style="fill: #000000;text-anchor:start;font-family:sans-serif;font-style:normal;font-weight:normal" x="629.894" y="165.831">
      <tspan x="629.894" y="165.831">Cues are entered into</tspan>
      <tspan x="629.894" y="193.348">the electronic script.</tspan>
      <tspan x="629.894" y="220.865">Icons in the script indicate</tspan>
      <tspan x="629.894" y="248.381">where the cues takes place</tspan>
      <tspan x="629.894" y="275.898">and what type of cue it is.</tspan>
    </text>
  </g>
  <g>
    <g>
      <rect style="fill: #d8e5e5" x="-51.3144" y="570.458" width="229.307" height="88.367"/>
      <rect style="fill: none; fill-opacity:0; stroke-width: 2; stroke: #000000" x="-51.3144" y="570.458" width="229.307" height="88.367"/>
    </g>
    <g>
      <rect style="fill: #d8e5e5" x="-40.1286" y="593.234" width="211.65" height="46.9"/>
      <text font-size="12.8" style="fill: #000000;text-anchor:start;font-family:sans-serif;font-style:normal;font-weight:normal" x="-40.1286" y="605.134">
        <tspan x="-40.1286" y="605.134">Alternately, cues can be created</tspan>
        <tspan x="-40.1286" y="621.134">by the user as the paper script is</tspan>
        <tspan x="-40.1286" y="637.134">read.</tspan>
      </text>
    </g>
  </g>
  <g>
    <path style="fill: none; fill-opacity:0; stroke-width: 2; stroke: #000000" d="M 177.992 614.642 C 243.724,614.642 374.006,704.578 430.002,704.578"/>
    <polygon style="fill: #000000" points="437.502,704.578 427.502,709.578 430.002,704.578 427.502,699.578 "/>
    <polygon style="fill: none; fill-opacity:0; stroke-width: 2; stroke: #000000" points="437.502,704.578 427.502,709.578 430.002,704.578 427.502,699.578 "/>
  </g>
  <g>
    <g>
      <rect style="fill: #d8e5e5" x="95.2182" y="209.16" width="220.358" height="73.8256"/>
      <rect style="fill: none; fill-opacity:0; stroke-width: 2; stroke: #000000" x="95.2182" y="209.16" width="220.358" height="73.8256"/>
    </g>
    <g>
      <rect style="fill: #d8e5e5" x="118.708" y="235.85" width="176" height="30.9"/>
      <text font-size="12.8" style="fill: #000000;text-anchor:start;font-family:sans-serif;font-style:normal;font-weight:normal" x="118.708" y="247.75">
        <tspan x="118.708" y="247.75">Paper script is converted to</tspan>
        <tspan x="118.708" y="263.75">electronic document.</tspan>
      </text>
    </g>
  </g>
  <g>
    <path style="fill: none; fill-opacity:0; stroke-width: 2; stroke: #000000" d="M -38.658 217.562 C 5.7889,217.562 50.7714,246.074 85.4821,246.074"/>
    <polygon style="fill: #000000" points="92.9821,246.074 82.9821,251.074 85.4821,246.074 82.9821,241.074 "/>
    <polygon style="fill: none; fill-opacity:0; stroke-width: 2; stroke: #000000" points="92.9821,246.074 82.9821,251.074 85.4821,246.074 82.9821,241.074 "/>
  </g>
  <g>
    <path style="fill: none; fill-opacity:0; stroke-width: 2; stroke: #000000" d="M 318.932 249.428 C 359.04,249.428 399.63,248.31 430.002,248.31"/>
    <polygon style="fill: #000000" points="437.502,248.31 427.502,253.31 430.002,248.31 427.502,243.31 "/>
    <polygon style="fill: none; fill-opacity:0; stroke-width: 2; stroke: #000000" points="437.502,248.31 427.502,253.31 430.002,248.31 427.502,243.31 "/>
  </g>
  <g>
    <path style="fill: none; fill-opacity:0; stroke-width: 2; stroke: #000000" d="M 536.466 387.272 C 539.908,442.742 580.678,390.368 582.968,434.337"/>
    <polygon style="fill: #000000" points="583.358,441.827 577.844,432.101 582.968,434.337 587.831,431.58 "/>
    <polygon style="fill: none; fill-opacity:0; stroke-width: 2; stroke: #000000" points="583.358,441.827 577.844,432.101 582.968,434.337 587.831,431.58 "/>
  </g>
  <g>
    <path style="fill: none; fill-opacity:0; stroke-width: 2; stroke: #000000" d="M 583.474 524.596 C 590.744,602.896 499.156,590.434 497.799,619.467"/>
    <polygon style="fill: #000000" points="497.448,626.958 492.921,616.736 497.799,619.467 502.91,617.203 "/>
    <polygon style="fill: none; fill-opacity:0; stroke-width: 2; stroke: #000000" points="497.448,626.958 492.921,616.736 497.799,619.467 502.91,617.203 "/>
  </g>
  <text font-size="12.8" style="fill: #000000;text-anchor:start;font-family:sans-serif;font-style:normal;font-weight:normal" x="578.44" y="466.432">
    <tspan x="578.44" y="466.432"></tspan>
  </text>
  <g>
    <g>
      <rect style="fill: #d8e5e5" x="499.022" y="444.06" width="168.904" height="80.537"/>
      <rect style="fill: none; fill-opacity:0; stroke-width: 2; stroke: #000000" x="499.022" y="444.06" width="168.904" height="80.537"/>
    </g>
    <text font-size="12.8" style="fill: #000000;text-anchor:start;font-family:sans-serif;font-style:normal;font-weight:normal" x="515.8" y="469.228">
      <tspan x="515.8" y="469.228">Cues are processed to</tspan>
      <tspan x="515.8" y="485.228">create show control</tspan>
      <tspan x="515.8" y="501.228">data files.</tspan>
    </text>
  </g>
  <text font-size="12.8" style="fill: #000000;text-anchor:start;font-family:sans-serif;font-style:normal;font-weight:normal" x="733.922" y="191.263">
    <tspan x="733.922" y="191.263"></tspan>
  </text>
  <text font-size="12.7998" style="fill: #000000;text-anchor:start;font-family:sans-serif;font-style:normal;font-weight:normal" x="-140" y="160">
    <tspan x="-140" y="160"></tspan>
  </text>
</svg>
